<svg width="24" height="24" viewBox="0 0 24 24" fill="none" xmlns="http://www.w3.org/2000/svg">
<g id="LinkSimple">
<path id="Vector" d="M8.81769 15.1811L15.1816 8.81714" stroke="#0A65CC" stroke-width="2" stroke-linecap="round" stroke-linejoin="round"/>
<path id="Vector_2" d="M13.5905 16.7729L10.9388 19.4245C10.0949 20.2682 8.95034 20.7421 7.757 20.742C6.56366 20.7419 5.41922 20.2678 4.5754 19.424C3.73159 18.5802 3.25749 17.4357 3.25739 16.2424C3.25728 15.0491 3.73119 13.9045 4.57486 13.0606L7.22651 10.4089" stroke="#0A65CC" stroke-width="2" stroke-linecap="round" stroke-linejoin="round"/>
<path id="Vector_3" d="M16.7729 13.5904L19.4246 10.9388C20.2682 10.0948 20.7421 8.95028 20.742 7.75694C20.7419 6.5636 20.2678 5.41916 19.424 4.57534C18.5802 3.73152 17.4358 3.25743 16.2424 3.25732C15.0491 3.25722 13.9046 3.73112 13.0606 4.5748L10.4089 7.22645" stroke="#0A65CC" stroke-width="2" stroke-linecap="round" stroke-linejoin="round"/>
</g>
</svg>
